<?xml version="1.0" encoding="utf-8"?>
<!-- Generator: Adobe Illustrator 28.4.1, SVG Export Plug-In . SVG Version: 6.00 Build 0)  -->
<svg version="1.1" id="Layer_1" xmlns="http://www.w3.org/2000/svg" xmlns:xlink="http://www.w3.org/1999/xlink" x="0px" y="0px"
	 viewBox="0 0 24 24" style="enable-background:new 0 0 24 24;" xml:space="preserve">
<style type="text/css">
	.st0{fill:#FECDD3;}
	.st1{fill:#EC1C24;}
</style>
<path class="st0" d="M21.5,7.8C21.5,7.8,21.5,7.8,21.5,7.8v5.6c0,3.7,0,5.5-1.3,6.8c-1.3,1.3-3.1,1.3-6.8,1.3h-2.8
	c-3.7,0-5.5,0-6.8-1.3c-1.3-1.3-1.3-3.1-1.3-6.8V7.8c0,0,0,0,0,0c0,0,0,0,0,0c0,0,0-0.1,0-0.1c0-0.1,0-0.1,0-0.2c0,0,0,0,0,0
	l1.2-1.9C4.6,4.2,5,3.4,5.8,2.9c0.8-0.4,1.7-0.4,3.3-0.4h5.7c1.6,0,2.5,0,3.3,0.4c0.8,0.5,1.3,1.2,2.1,2.6l1.2,1.9c0,0,0,0,0,0
	c0,0.1,0,0.1,0.1,0.2C21.5,7.7,21.5,7.7,21.5,7.8C21.5,7.8,21.5,7.8,21.5,7.8z"/>
<g>
	<path class="st1" d="M22.2,7.5c0-0.1,0-0.2-0.1-0.3c0,0,0,0,0,0L20.9,5c-0.9-1.5-1.4-2.3-2.2-2.8c-0.9-0.5-1.8-0.5-3.5-0.5H9
		c-1.7,0-2.6,0-3.5,0.5C4.6,2.7,4.1,3.5,3.2,4.9L1.9,7.1c0,0,0,0,0,0c0,0.1-0.1,0.2-0.1,0.3c0,0,0,0,0,0c0,0,0,0,0,0v6
		c0,4,0,6,1.4,7.4c1.4,1.4,3.4,1.4,7.4,1.4H13c0.4,0,0.8-0.3,0.8-0.8s-0.3-0.8-0.8-0.8h-2.5c-3.6,0-5.3,0-6.3-1c-1-1-1-2.7-1-6.3
		V8.2h17.5V13c0,0.4,0.3,0.8,0.8,0.8s0.8-0.3,0.8-0.8L22.2,7.5C22.2,7.5,22.2,7.5,22.2,7.5C22.2,7.5,22.2,7.5,22.2,7.5z M4.5,5.7
		c0.8-1.3,1.2-1.9,1.7-2.2C6.7,3.2,7.5,3.2,9,3.2h2.3v3.5H3.9L4.5,5.7z M12.8,6.8V3.2h2.4c1.5,0,2.3,0,2.8,0.3
		c0.5,0.3,0.9,0.9,1.7,2.3l0.6,1H12.8z"/>
	<path class="st1" d="M14.8,10.5c0-0.4-0.3-0.8-0.8-0.8h-4c-0.4,0-0.8,0.3-0.8,0.8s0.3,0.8,0.8,0.8h4C14.4,11.2,14.8,10.9,14.8,10.5
		z"/>
	<path class="st1" d="M20.6,19.6c0.4-0.6,0.6-1.3,0.6-2.1c0-2.1-1.7-3.8-3.8-3.8s-3.8,1.7-3.8,3.8s1.7,3.8,3.8,3.8
		c0.7,0,1.5-0.2,2.1-0.6L21,22c0.1,0.1,0.3,0.2,0.5,0.2s0.4-0.1,0.5-0.2c0.3-0.3,0.3-0.8,0-1.1L20.6,19.6z M19.1,19.1
		c-0.4,0.4-1,0.7-1.6,0.7c-1.2,0-2.2-1-2.2-2.2s1-2.2,2.2-2.2s2.2,1,2.2,2.2C19.8,18.1,19.5,18.7,19.1,19.1z"/>
</g>
</svg>
